<svg width="24" height="24" viewBox="0 0 24 24" fill="none" xmlns="http://www.w3.org/2000/svg">
<g id="Iconly/Light/Hide">
<g id="Hide">
<path id="Stroke 1" d="M9.76057 14.3668C9.18557 13.7928 8.83557 13.0128 8.83557 12.1378C8.83557 10.3848 10.2476 8.9718 11.9996 8.9718C12.8666 8.9718 13.6646 9.3228 14.2296 9.8968" stroke="#04021D" stroke-width="1.5" stroke-linecap="round" stroke-linejoin="round"/>
<path id="Stroke 3" d="M15.1047 12.6989C14.8727 13.9889 13.8567 15.0069 12.5677 15.2409" stroke="#04021D" stroke-width="1.5" stroke-linecap="round" stroke-linejoin="round"/>
<path id="Stroke 5" d="M6.65457 17.4723C5.06757 16.2263 3.72357 14.4063 2.74957 12.1373C3.73357 9.85829 5.08657 8.02829 6.68357 6.77229C8.27057 5.51629 10.1016 4.83429 11.9996 4.83429C13.9086 4.83429 15.7386 5.52629 17.3356 6.79129" stroke="#04021D" stroke-width="1.5" stroke-linecap="round" stroke-linejoin="round"/>
<path id="Stroke 7" d="M19.4476 8.99078C20.1356 9.90478 20.7406 10.9598 21.2496 12.1368C19.2826 16.6938 15.8066 19.4388 11.9996 19.4388C11.1366 19.4388 10.2856 19.2988 9.46759 19.0258" stroke="#04021D" stroke-width="1.5" stroke-linecap="round" stroke-linejoin="round"/>
<path id="Stroke 9" d="M19.887 4.24957L4.11298 20.0236" stroke="#04021D" stroke-width="1.5" stroke-linecap="round" stroke-linejoin="round"/>
</g>
</g>
</svg>
